<svg width="38" height="31" viewBox="0 0 38 31" fill="none" xmlns="http://www.w3.org/2000/svg">
<path d="M0.237883 14.8079L14.8086 0.237219C14.9605 0.0853271 15.1665 -5.79588e-06 15.3813 -5.79588e-06C15.5961 -5.79588e-06 15.8021 0.0853271 15.954 0.237219C16.1059 0.38911 16.1912 0.595121 16.1912 0.809929C16.1912 1.02474 16.1059 1.23075 15.954 1.38264L2.76549 14.5711H36.4278C36.6425 14.5711 36.8484 14.6564 37.0002 14.8082C37.152 14.96 37.2373 15.1659 37.2373 15.3806C37.2373 15.5953 37.152 15.8012 37.0002 15.953C36.8484 16.1048 36.6425 16.1901 36.4278 16.1901H2.76549L15.954 29.3786C16.1059 29.5305 16.1912 29.7365 16.1912 29.9513C16.1912 30.1661 16.1059 30.3721 15.954 30.524C15.8021 30.6759 15.5961 30.7612 15.3813 30.7612C15.1665 30.7612 14.9605 30.6759 14.8086 30.524L0.237883 15.9533C0.162619 15.8781 0.102911 15.7889 0.0621742 15.6906C0.021437 15.5923 0.000471427 15.487 0.000471427 15.3806C0.000471427 15.2742 0.021437 15.1689 0.0621742 15.0706C0.102911 14.9724 0.162619 14.8831 0.237883 14.8079Z" fill="#413C3A"/>
</svg>
