<svg width="39" height="32" viewBox="0 0 39 32" fill="none" xmlns="http://www.w3.org/2000/svg">
<path d="M37.4994 15.3079L22.9287 0.737219C22.7768 0.585327 22.5708 0.499994 22.356 0.499994C22.1412 0.499994 21.9352 0.585327 21.7833 0.737219C21.6314 0.889111 21.5461 1.09512 21.5461 1.30993C21.5461 1.52474 21.6314 1.73075 21.7833 1.88264L34.9718 15.0711H1.30948C1.09479 15.0711 0.8889 15.1564 0.737092 15.3082C0.585285 15.46 0.5 15.6659 0.5 15.8806C0.5 16.0953 0.585285 16.3012 0.737092 16.453C0.8889 16.6048 1.09479 16.6901 1.30948 16.6901H34.9718L21.7833 29.8786C21.6314 30.0305 21.5461 30.2365 21.5461 30.4513C21.5461 30.6661 21.6314 30.8721 21.7833 31.024C21.9352 31.1759 22.1412 31.2612 22.356 31.2612C22.5708 31.2612 22.7768 31.1759 22.9287 31.024L37.4994 16.4533C37.5747 16.3781 37.6344 16.2889 37.6751 16.1906C37.7159 16.0923 37.7368 15.987 37.7368 15.8806C37.7368 15.7742 37.7159 15.6689 37.6751 15.5706C37.6344 15.4724 37.5747 15.3831 37.4994 15.3079Z" fill="#413C3A" stroke="black"/>
</svg>
